<?xml version="1.0" encoding="utf-8"?>
<!-- Generator: Adobe Illustrator 25.2.0, SVG Export Plug-In . SVG Version: 6.00 Build 0)  -->
<svg version="1.1" id="Layer_1" xmlns="http://www.w3.org/2000/svg" xmlns:xlink="http://www.w3.org/1999/xlink" x="0px" y="0px"
	 viewBox="0 0 553.2 639.4" style="enable-background:new 0 0 553.2 639.4;" xml:space="preserve">
<path d="M255.5,175.1h42.2v42.5h-42.2V175.1z"/>
<path d="M432.5,0H120.7C54,0,0,54.3,0,121.4v313.5c0,67,54,121.4,120.7,121.4h103.8l51.6,83.1l51.6-83.1h104.8
	c66.7,0,120.7-54.3,120.7-121.4V121.4C553.2,54.3,499.2,0,432.5,0z M165.2,217.6h44.7v-42.5h-44.7v-45.8h44.7v-45h45.6v45h42.2v-45
	h45.6v45H388v45.8h-44.7v42.5H388v45.8h-44.7v45h-45.6v-45h-42.3v45h-45.6v-45h-44.7V217.6z M485.7,357.8c0,0-60.2,113.9-203,113.9
	c-2,0-9.8,0-11.7,0c-142.8,0-203-113.9-203-113.9s-3.9-7.4-3.9-15.4c-0.2-5.8,2.6-14,9.9-18.9c4.1-2.7,8-4.1,11.6-4.5
	c17.2-1.8,27.2,9.4,35.4,22.3c9.1,14.2,61.3,76.4,155.9,78.7c94.6-2.4,146.8-64.5,155.9-78.7c8.2-12.9,18.5-24.1,35.4-22.3
	c3.6,0.4,7.5,1.8,11.6,4.5c7.4,4.9,10.2,11.7,10,18.9C489,353,485.7,357.8,485.7,357.8z"/>
</svg>
