<?xml version="1.0" encoding="utf-8"?>
<!-- Generator: Adobe Illustrator 25.2.0, SVG Export Plug-In . SVG Version: 6.00 Build 0)  -->
<svg version="1.1" id="Layer_1" xmlns="http://www.w3.org/2000/svg" xmlns:xlink="http://www.w3.org/1999/xlink" x="0px" y="0px"
	 viewBox="0 0 639.4 637.8" style="enable-background:new 0 0 639.4 637.8;" xml:space="preserve">
<path d="M616.7,372.2C616.5,373.3,616.2,371.1,616.7,372.2c3.3-18,5-36.4,5-54.7c0-40.8-8-80.3-23.7-117.5c-15.2-36-37-68.2-64.7-96
	c-27.7-27.7-60-49.5-95.9-64.7c-37.2-15.7-76.7-23.7-117.5-23.7c-19.2,0-38.4,1.8-57.2,5.4c0,0-0.1,0-0.1,0C236.9,7.3,208,0,178.7,0
	C131,0,86.1,18.6,52.4,52.4C18.6,86.1,0,131,0,178.7c0,30.4,7.8,60.3,22.5,86.7c-3,17.1-4.5,34.6-4.5,52c0,40.8,8,80.3,23.7,117.5
	c15.2,36,37,68.2,64.7,96c27.7,27.7,60,49.5,96,64.7c37.2,15.8,76.8,23.8,117.5,23.8c17.7,0,35.5-1.6,52.9-4.7
	c26.7,15.1,57,23.2,87.9,23.2c47.7,0,92.6-18.6,126.4-52.3c33.8-33.7,52.3-78.6,52.3-126.4C639.4,428.6,631.5,398.7,616.7,372.2z
	 M321.1,502.3c-107.3,0-155.2-52.7-155.2-92.3c0-20.3,15-34.5,35.6-34.5c45.9,0,34,65.9,119.7,65.9c43.8,0,68.1-23.8,68.1-48.2
	c0-14.7-7.2-30.9-36.1-38l-95.4-23.8c-76.8-19.3-90.8-60.8-90.8-99.8c0-81.1,76.3-111.5,148-111.5c66,0,143.9,36.5,143.9,85.1
	c0,20.8-18,33-38.7,33c-39.2,0-32-54.2-110.9-54.2c-39.2,0-60.8,17.7-60.8,43.1c0,25.3,30.9,33.4,57.8,39.5l70.6,15.7
	c77.4,17.2,97,62.4,97,104.9C473.7,453.1,423.1,502.3,321.1,502.3z"/>
</svg>
