<?xml version="1.0" encoding="utf-8"?>
<!-- Generator: Adobe Illustrator 25.2.0, SVG Export Plug-In . SVG Version: 6.00 Build 0)  -->
<svg version="1.1" id="Layer_1" xmlns="http://www.w3.org/2000/svg" xmlns:xlink="http://www.w3.org/1999/xlink" x="0px" y="0px"
	 viewBox="0 0 508.4 639.4" style="enable-background:new 0 0 508.4 639.4;" xml:space="preserve">
<path d="M257.8,0C113.9,0,0,119.7,0,263.9c0,150.7,200,375.5,257.8,375.5c50.7,0,250.6-224.8,250.6-375.5
	C508.4,119.7,394.5,0,257.8,0z M258.5,400.6C169,400.6,100,333.3,100,254.7c0-33.3,10.2-63.6,27.6-88.4c5.4,27.9,30.3,49,60.5,49
	c34,0,61.6-26.9,61.6-60.2c0-21.4-11.6-40.1-28.9-50.7c11.9-2.7,24.5-4.1,37.8-4.1c80.6,0,149.6,67.3,149.6,154.4
	C408.1,333.3,339.1,400.6,258.5,400.6z"/>
</svg>
