<?xml version="1.0" encoding="utf-8"?>
<!-- Generator: Adobe Illustrator 25.2.0, SVG Export Plug-In . SVG Version: 6.00 Build 0)  -->
<svg version="1.1" id="Layer_1" xmlns="http://www.w3.org/2000/svg" xmlns:xlink="http://www.w3.org/1999/xlink" x="0px" y="0px"
	 viewBox="0 0 638.4 318.5" style="enable-background:new 0 0 638.4 318.5;" xml:space="preserve">
<path d="M638.4,188c0,20.4-16.6,37-37,37c-20.4,0-37-16.6-37-37s16.6-37,37-37C621.9,151,638.4,167.6,638.4,188z"/>
<path d="M132,184l42.4-40.5c12.9-12.3,13.4-32.8,1-45.7c-12.3-12.9-32.8-13.4-45.7-1l-65.1,62.2V32.3C64.7,14.5,50.2,0,32.3,0
	C14.5,0,0,14.5,0,32.3v253.8c0,17.9,14.5,32.3,32.3,32.3c17.9,0,32.3-14.5,32.3-32.3v-37.8L84.9,229l56.2,76.3v0
	c10.6,14.4,30.8,17.4,45.2,6.8c14.4-10.6,17.4-30.8,6.8-45.2L132,184z"/>
<path d="M271.9,86.8c-17.9,0-32.3,14.5-32.3,32.3v167c0,17.9,14.5,32.3,32.3,32.3c17.9,0,32.3-14.5,32.3-32.3v-167
	C304.2,101.3,289.8,86.8,271.9,86.8z"/>
<path d="M480.5,184l42.4-40.5c12.9-12.3,13.4-32.8,1-45.7c-12.3-12.9-32.8-13.4-45.7-1l-65.1,62.2V32.3c0-17.9-14.5-32.3-32.3-32.3
	c-17.9,0-32.3,14.5-32.3,32.3v253.8c0,17.9,14.5,32.3,32.3,32.3c17.9,0,32.3-14.5,32.3-32.3v-37.8l20.2-19.3l56.2,76.3v0
	c10.6,14.4,30.8,17.4,45.2,6.8c14.4-10.6,17.4-30.8,6.8-45.2L480.5,184z"/>
</svg>
