<?xml version="1.0" encoding="utf-8"?>
<!-- Generator: Adobe Illustrator 25.2.0, SVG Export Plug-In . SVG Version: 6.00 Build 0)  -->
<svg version="1.1" id="Layer_1" xmlns="http://www.w3.org/2000/svg" xmlns:xlink="http://www.w3.org/1999/xlink" x="0px" y="0px"
	 viewBox="0 0 640 640" style="enable-background:new 0 0 640 640;" xml:space="preserve">
<path d="M451.5,109.7c-1.9,0-8.4,0.9-14.4,2c-26.8,5-184.5,37.1-187.2,38.2c-4.2,1.6-8.3,5.3-10.3,9.3l-1.7,3.4
	c0,0-0.8,238.7-2,241.4c-1.8,4.1-5.9,8-9.7,9.2c-1.8,0.6-8.8,2.2-15.7,3.6c-31.7,6.4-43.4,11.1-53.4,21.1
	c-5.6,5.7-9.8,13.4-11.6,21.5c-1.7,7.8-1.1,19.4,1.3,26.5c5.1,14.7,16.5,25.2,31.9,29.2c14.5,3.8,41.6-0.4,55.5-8.6
	c5.8-3.4,13.3-10.6,17.1-16.6c1.5-2.3,3.8-7.1,5.1-10.5c4.5-12,4.7-225.9,5.2-228.6c1-4.6,4-7.9,8.2-9c3.8-1,155.7-31.8,160-32.4
	c4-0.6,7.8,0.9,9.7,3.7c1.2,1.9,4.3,149.4,0.2,154.3c-3,3.6-9.3,5-24.7,8.2c-23.5,4.9-31.5,7.2-40.5,11.7
	c-11.2,5.6-17.5,11.8-22.3,22c-3.4,7.2-4.7,12.6-4.7,19.8c0,12.9,4.4,22.9,14.1,32.8c6.7,6.8,12.9,10.3,21.4,12.3
	c9.5,2.2,28.9,0.8,42.2-3.2c18.8-5.6,32-19.3,37.5-38.6c1.1-3.8,1.6-7.7,1.6-11.6c0-42.4,0.2-299.6-0.4-301.5
	C462.2,113.2,457.7,109.7,451.5,109.7z"/>
<path d="M320,0C143.3,0,0,143.3,0,320s143.3,320,320,320s320-143.3,320-320S496.7,0,320,0z M320,613.1
	C158.1,613.1,26.9,481.9,26.9,320S158.1,26.9,320,26.9S613.1,158.1,613.1,320S481.9,613.1,320,613.1z"/>
</svg>
