<?xml version="1.0" encoding="utf-8"?>
<!-- Generator: Adobe Illustrator 25.2.0, SVG Export Plug-In . SVG Version: 6.00 Build 0)  -->
<svg version="1.1" id="Layer_1" xmlns="http://www.w3.org/2000/svg" xmlns:xlink="http://www.w3.org/1999/xlink" x="0px" y="0px"
	 viewBox="0 0 639.4 569.8" style="enable-background:new 0 0 639.4 569.8;" xml:space="preserve">
<path d="M429.5,389.9c-27.5,0-50-22.5-50-50c0-27.5,22.5-50,50-50c27.5,0,50,22.5,50,50C479.5,367.4,457.1,389.9,429.5,389.9
	 M438.3,471.9c-34.2,34.1-99.5,36.8-118.7,36.8c-19.2,0-84.6-2.7-118.7-36.8c-5.1-5.1-5.1-13.2,0-18.3c5.1-5.1,13.2-5.1,18.3,0
	c21.5,21.5,67.5,29.2,100.4,29.2c32.8,0,78.9-7.7,100.4-29.2c5.1-5.1,13.2-5.1,18.3,0C443.3,458.7,443.3,466.8,438.3,471.9
	 M159.6,339.9c0-27.5,22.5-50,50-50c27.5,0,50,22.5,50,50s-22.5,50-50,50C182,389.9,159.6,367.4,159.6,339.9 M639.4,289.9
	c0-38.7-31.3-70-70-70c-18.9,0-36,7.5-48.6,19.7c-47.8-34.5-113.7-56.8-187.1-59.4l31.9-150l104.1,22.2
	c1.2,26.5,22.9,47.6,49.7,47.6c27.6,0,50-22.4,50-50c0-27.6-22.4-50-50-50c-19.7,0-36.5,11.4-44.6,27.9L358.5,3.2
	c-3.3-0.7-6.6-0.1-9.4,1.7c-2.8,1.8-4.7,4.6-5.4,7.9c0,0-34.9,166.4-34.9,167.4c-74.8,1.9-141.9,24.3-190.5,59.3
	c-12.6-12.1-29.6-19.5-48.4-19.5c-38.7,0-70,31.4-70,70c0,28.4,17,52.9,41.4,63.8c-1.1,6.9-1.6,14-1.6,21.2
	c0,107.7,125.3,194.9,279.9,194.9c154.6,0,279.9-87.2,279.9-194.9c0-7.1-0.6-14.1-1.6-21C622.2,343,639.4,318.5,639.4,289.9"/>
</svg>
