<?xml version="1.0" encoding="utf-8"?>
<!-- Generator: Adobe Illustrator 24.0.0, SVG Export Plug-In . SVG Version: 6.00 Build 0)  -->
<svg version="1.1" xmlns="http://www.w3.org/2000/svg" xmlns:xlink="http://www.w3.org/1999/xlink" x="0px" y="0px"
	 viewBox="0 0 813.7 536.03" style="enable-background:new 0 0 813.7 536.03;" xml:space="preserve">
<style type="text/css">
	.st0{fill:#C29A77;}
</style>
<g id="bot_crown">
	<polygon class="st0" points="646.85,506.03 646.85,486.03 166.85,486.03 166.85,506.03 111.85,506.03 111.85,536.03 701.85,536.03 
		701.85,506.03 	"/>
</g>
<g id="mid_crown">
	<rect x="96.85" y="449.36" class="st0" width="620" height="20"/>
</g>
<g id="top_crown">
	<g>
		<path class="st0" d="M572.04,333.19c-64.89,88.22-165.19,83.33-165.19,83.33s-100.3,4.89-165.19-83.33c0,0-7.56,68.1-92.89,83.38
			L167,449.36h239.85H646.7l18.22-32.78C579.59,401.29,572.04,333.19,572.04,333.19z"/>
		<path class="st0" d="M278.67,259.13c0,0,50.22,4,48.89-30.89c0,0-0.67-26.22-25.78-26.89c0,0-13.63-1.56-19.11,12.22
			c0,0-1.41,3.56-5.04,2.44c0,0-4.81-1.11-4.15-8.15c0,0,0.15-20.52,28.96-22.67c0,0,60.44-7.35,65.78,74.07c0,0,0.08,0.6,0.17,1.68
			c-4.62,1.3-8.01,5.54-8.01,10.58c0,4.8,3.08,8.87,7.36,10.37c-2.3,16.1-9.72,36.46-31.52,45.68c-1.39,0.57-3.33,1.12-5.66,1.11
			c-2.73-0.02-4.58-0.81-5.23-1.11c-2.11-0.99-2.63-2.04-2.79-2.37c-0.21-0.46-0.3-0.93-0.32-1.4c0-0.26,0.05-0.8,0.38-1.36
			c0.42-0.72,1.05-1.04,1.28-1.14c1.21-0.48,3.43-1.54,5.31-3.79c3.32-3.96,3.1-8.6,3.02-9.82c-0.37-5.52-3.84-9.05-4.86-10.06
			c-5.19-5.12-12.15-5.04-13.87-5.16c-11.85-0.81-28.15,8.44-27.26,24.96c0.35,6.55,1.98,12.5,5.67,17.41
			c10.81,14.4,31.37,13.71,33.88,13.62c21.95-0.72,42.89-20.3,53.24-48.96c1.71-5.68,3.08-11.35,4.15-16.98h13.65
			c-0.72,12.66-3.03,33.92-10.34,47.55c-10.96,20.44-10.67,34.37-10.67,34.37s-0.99,12.44,9.14,22.52
			c10.12,10.07,11.75,11.11,21.9,22.3c10.15-11.19,11.78-12.22,21.9-22.3c10.12-10.07,9.14-22.52,9.14-22.52s0.3-13.93-10.67-34.37
			c-7.31-13.63-9.61-34.89-10.34-47.55h13.65c1.07,5.63,2.44,11.3,4.15,16.98c10.35,28.66,31.29,48.24,53.24,48.96
			c2.51,0.08,23.08,0.78,33.88-13.62c3.69-4.91,5.32-10.87,5.67-17.41c0.89-16.52-15.41-25.78-27.26-24.96
			c-1.72,0.12-8.68,0.04-13.87,5.16c-1.03,1.01-4.5,4.54-4.86,10.06c-0.08,1.22-0.3,5.86,3.02,9.82c1.88,2.25,4.1,3.32,5.31,3.79
			c0.23,0.1,0.86,0.42,1.28,1.14c0.33,0.56,0.38,1.1,0.38,1.36c-0.03,0.48-0.11,0.95-0.32,1.4c-0.15,0.33-0.68,1.39-2.79,2.37
			c-0.65,0.3-2.5,1.1-5.23,1.11c-2.32,0.01-4.26-0.54-5.66-1.11c-21.81-9.22-29.22-29.58-31.52-45.68c4.28-1.5,7.36-5.57,7.36-10.37
			c0-5.04-3.39-9.27-8.01-10.58c0.09-1.08,0.17-1.68,0.17-1.68c5.33-81.42,65.78-74.07,65.78-74.07
			c28.81,2.15,28.96,22.67,28.96,22.67c0.67,7.04-4.15,8.15-4.15,8.15c-3.63,1.11-5.04-2.44-5.04-2.44
			c-5.48-13.78-19.11-12.22-19.11-12.22c-25.11,0.67-25.78,26.89-25.78,26.89c-1.33,34.89,48.89,30.89,48.89,30.89
			c57.78-6.67,54.44-54.89,54.44-54.89c-2.89-55.56-69.11-54.89-69.11-54.89c-14.16,0.22-34.62,3.11-53.03,16.32
			c-26.94,19.33-41.28,54.91-39.43,94.85h-11.03c0.92-13.03,4.07-36.3,14.48-65.26c4.54-12.64,11.66-31.68,15.74-59.67
			c1.51-10.39,2.14-19.06,2.43-24.92c0.02-6.49-0.43-15.99-2.8-27.13c-1.11-5.24-4.15-16.87-17.56-43.92
			C418.09,17.26,406.85,0,406.85,0s-11.24,17.26-22.33,39.63c-13.41,27.05-16.44,38.68-17.56,43.92
			c-2.37,11.14-2.82,20.64-2.8,27.13c0.29,5.86,0.91,14.53,2.43,24.92c4.08,27.98,11.2,47.03,15.74,59.67
			c10.41,28.97,13.56,52.23,14.48,65.26h-11.03c1.85-39.94-12.49-75.52-39.43-94.85c-18.4-13.21-38.87-16.1-53.03-16.32
			c0,0-66.22-0.67-69.11,54.89C224.22,204.24,220.89,252.46,278.67,259.13z"/>
		<path class="st0" d="M786.3,170.55c-17.59,11.77-23.49,17.78-26,20.58c-5.33,5.95-8.91,11.57-11.16,15.52
			c-1.87,3.66-4.51,9.15-7.22,16c-7.28,18.44-9.6,32.5-11.25,41.77c-3.78,21.24-9.98,36.49-13.96,44.73l-6.71-3.85
			c15.06-23.64,18.75-50.27,9.12-71.43c-6.58-14.45-18.01-23.35-26.55-28.42c0,0-40.03-23.51-61.17,9.26
			c0,0-18.85,28.16,13.95,52.37c0,0,29.14,19.95,40.5-1.72c0,0,8.74-16.18-6.29-25.34c0,0-7.74-5.7-15.88,0.76
			c0,0-2.1,1.67-3.92-0.27c0,0-2.54-2.36,0.32-6.4c0,0,7.25-12.42,25.52-3.68c0,0,39.32,16.62,14.15,67.98c0,0-0.16,0.39-0.48,1.08
			c-3.26-0.82-6.8,0.57-8.56,3.64c-1.67,2.92-1.22,6.46,0.86,8.87c-7.02,8.99-18.63,18.78-35.1,16.78c-1.05-0.14-2.42-0.48-3.83-1.3
			c-1.65-0.96-2.5-2.09-2.79-2.5c-0.94-1.34-0.89-2.16-0.87-2.42c0.03-0.35,0.14-0.67,0.29-0.97c0.09-0.16,0.31-0.47,0.71-0.7
			c0.51-0.29,1-0.26,1.17-0.25c0.9,0.13,2.62,0.26,4.55-0.45c3.4-1.25,4.89-4.15,5.26-4.92c1.71-3.49,0.82-6.84,0.55-7.82
			c-1.37-4.92-5.63-7.3-6.63-7.97c-6.92-4.63-20.06-4.69-25.28,5.67c-2.07,4.1-3.15,8.29-2.63,12.57
			c1.55,12.53,14.29,19.28,15.85,20.11c13.6,7.22,33.16,2.62,49.45-11.2c3.02-2.86,5.83-5.82,8.45-8.87l8.3,4.76
			c-4.86,7.45-13.67,19.57-22.87,25.31c-13.8,8.61-18.48,17.18-18.48,17.18s-4.94,7.22-2.3,16.88c2.64,9.66,3.27,10.86,5.54,21.2
			L813.7,154.24C813.7,154.24,800.85,160.82,786.3,170.55z"/>
		<path class="st0" d="M146.02,365c0,0-4.68-8.57-18.48-17.18c-9.2-5.74-18.02-17.86-22.87-25.31l8.3-4.76
			c2.62,3.05,5.43,6.02,8.45,8.87c16.29,13.81,35.86,18.41,49.45,11.2c1.56-0.83,14.3-7.58,15.85-20.11
			c0.53-4.27-0.56-8.46-2.63-12.57c-5.22-10.35-18.36-10.3-25.28-5.67c-1,0.67-5.26,3.05-6.63,7.97c-0.27,0.97-1.15,4.33,0.55,7.82
			c0.38,0.77,1.86,3.67,5.26,4.92c1.93,0.71,3.65,0.58,4.55,0.45c0.18-0.02,0.67-0.04,1.17,0.25c0.4,0.23,0.61,0.54,0.71,0.7
			c0.15,0.3,0.26,0.61,0.29,0.97c0.02,0.26,0.07,1.08-0.87,2.42c-0.29,0.41-1.14,1.54-2.79,2.5c-1.41,0.82-2.78,1.16-3.83,1.3
			c-16.48,2-28.08-7.79-35.1-16.78c2.08-2.41,2.53-5.96,0.86-8.87c-1.76-3.06-5.3-4.46-8.56-3.64c-0.32-0.69-0.48-1.08-0.48-1.08
			c-25.16-51.36,14.15-67.98,14.15-67.98c18.27-8.75,25.52,3.68,25.52,3.68c2.86,4.05,0.32,6.4,0.32,6.4
			c-1.82,1.94-3.92,0.27-3.92,0.27c-8.14-6.46-15.88-0.76-15.88-0.76c-15.04,9.17-6.29,25.34-6.29,25.34
			c11.36,21.68,40.5,1.72,40.5,1.72c32.8-24.21,13.95-52.37,13.95-52.37c-21.14-32.77-61.17-9.26-61.17-9.26
			c-8.53,5.07-19.97,13.97-26.55,28.42c-9.63,21.15-5.94,47.79,9.12,71.43l-6.71,3.85c-3.99-8.25-10.19-23.49-13.96-44.73
			c-1.65-9.27-3.96-23.33-11.25-41.77c-2.7-6.85-5.35-12.33-7.22-16c-2.25-3.95-5.84-9.57-11.16-15.52c-2.5-2.8-8.41-8.81-26-20.58
			C12.86,160.82,0,154.24,0,154.24l142.79,248.83c2.27-10.34,2.9-11.54,5.54-21.2C150.96,372.22,146.02,365,146.02,365z"/>
	</g>
</g>
</svg>
